# xmcd
#
# Track frame offsets:
#	150
#	11655
#	22335
#	33617
#	43000
#	57717
#	71637
#	84330
#	96642
#	108960
#	119042
#	130552
#	145525
#	155727
#	166832
#	179997
#	189405
#	198145
#
# Disc length: 2791
#
# Revision: 1
# Processed by: cddbd v1.5.1PL0 Copyright (c) Steve Scherf et al.
# Submitted via: FreeRIP 2.53 
# Normalized: r0:TDELIM( - )
#
DISCID=090ae512
DTITLE=Various Artist - Country Girls at Heart
DYEAR=1998
DGENRE=Country
TTITLE0=Lynn Anderson - Listen To A Country Song
TTITLE1=Billie Jo Spears - I'm So Lonesome I Could Cry
TTITLE2=Patsy Cline - Just Out Of Reach
TTITLE3=Jeannie C. Riley - The Girl Most Likely
TTITLE4=Anne Murray - Both Sides Now
TTITLE5=Jo Ann Steele - Lovin' You Lovin' Me
TTITLE6=Lynn Anderson - Top Of The World
TTITLE7=Dottie West - Crazy
TTITLE8=Lynn Anderson - Stand By Your Man
TTITLE9=Billie Jo Spears - I Stayed Long Enough
TTITLE10=Patsy Cline - I've Loved And Lost Again
TTITLE11=Jeannie C. Riley - Harper Valley PTA
TTITLE12=Jan Howard - I Wish I Could Fall In Love Again
TTITLE13=Jeannie C. Riley - Box Of Memories
TTITLE14=Jo Ann Steele - Love On Borrowed Time
TTITLE15=Anne Murray - Some Birds
TTITLE16=Billie Jo Spears - You're My Man
TTITLE17=Patsy Cline - Hungry For Love
EXTD=
EXTT0=
EXTT1=
EXTT2=
EXTT3=
EXTT4=
EXTT5=
EXTT6=
EXTT7=
EXTT8=
EXTT9=
EXTT10=
EXTT11=
EXTT12=
EXTT13=
EXTT14=
EXTT15=
EXTT16=
EXTT17=
PLAYORDER=
